# xmcd
#
# Track frame offsets:
#	150
#	2085
#	16300
#	20352
#	27255
#	43102
#	45457
#	59820
#	66365
#	82617
#	96907
#	121400
#	123737
#	139377
#	147927
#	162377
#	165125
#	173277
#	200562
#	212002
#
# Disc length: 2948 seconds
#
# Revision: 2
# Processed by: cddbd v1.5.2PL0 Copyright (c) Steve Scherf et al.
# Submitted via: audiograbber 1.83.01
#
DISCID=0f0b8214
DTITLE=Marty Stuart - The Pilgrim
DYEAR=1999
DGENRE=Country
TTITLE0=Intro
TTITLE1=Sometimes The Pleasure's Worth The Pain
TTITLE2=The Pilgrim (Act I)
TTITLE3=Harlan County
TTITLE4=Reasons
TTITLE5=Love Can Go To ....
TTITLE6=Red, Red Wine And Cheatin' Songs
TTITLE7=Truckstop
TTITLE8=Hobo's Prayer
TTITLE9=Goin' Nowhere Fast
TTITLE10=The Observations Of A Crow
TTITLE11=Intermission
TTITLE12=The Greatest Love Of All Time
TTITLE13=The Greatest Love Of All Time (Reprise)
TTITLE14=Draggin' Around These Chains Of Love
TTITLE15=The Pilgrim (Act II)
TTITLE16=Redemption
TTITLE17=The Pilgrim (Act III)
TTITLE18=Outro
TTITLE19=Mr. John Henry, Steel Driving Man
EXTD=YEAR: 1999 ID3G: 2
EXTT0=
EXTT1=
EXTT2=
EXTT3=
EXTT4=
EXTT5=
EXTT6=
EXTT7=
EXTT8=
EXTT9=
EXTT10=
EXTT11=
EXTT12=
EXTT13=
EXTT14=
EXTT15=
EXTT16=
EXTT17=
EXTT18=
EXTT19=
PLAYORDER=
